<?xml version="1.0" encoding="UTF-8" standalone="no"?>
<svg width="360px" height="184px" viewBox="0 0 360 184" version="1.1" xmlns="http://www.w3.org/2000/svg" xmlns:xlink="http://www.w3.org/1999/xlink" xmlns:sketch="http://www.bohemiancoding.com/sketch/ns">
    <!-- Generator: Sketch 3.4.2 (15855) - http://www.bohemiancoding.com/sketch -->
    <title>Page 1</title>
    <desc>Created with Sketch.</desc>
    <defs>
        <path id="path-1" d="M0,0.526 L359.182,0.526 L359.182,184 L0,184"></path>
        <path id="path-3" d="M0,0.526 L359.182,0.526 L359.182,184 L0,184 L0,0.526 Z"></path>
    </defs>
    <g id="Page-1" stroke="none" stroke-width="1" fill="none" fill-rule="evenodd" sketch:type="MSPage">
        <g sketch:type="MSLayerGroup">
            <g id="Group-3">
                <mask id="mask-2" sketch:name="Clip 2" fill="white">
                    <use xlink:href="#path-1"></use>
                </mask>
                <g id="Clip-2"></g>
                <path d="M197.0942,20.0825 C191.5202,18.8725 186.2812,18.5095 181.3752,18.9915 C176.4692,19.4775 171.8642,20.6895 167.5652,22.6265 C163.2632,24.5655 159.2052,27.0505 155.3902,30.0765 C151.5732,33.1055 148.0312,36.4995 144.7592,40.2525 C149.9662,39.2845 155.3902,38.1345 161.0232,36.8005 C166.6572,35.4685 171.9262,33.9555 176.8322,32.2575 C181.7392,30.5615 186.0092,28.7135 189.6442,26.7155 C193.2782,24.7165 195.7592,22.5075 197.0942,20.0825 M55.3542,153.0995 C50.8702,151.2815 46.4502,149.9475 42.0892,149.1025 C37.7282,148.2525 34.1532,148.3745 31.3672,149.4655 C29.3062,150.3115 27.6422,151.5235 26.3702,153.0995 C25.0982,154.6725 24.3092,156.2795 24.0082,157.9145 C23.7042,159.5505 23.9172,161.0635 24.6442,162.4575 C25.3702,163.8495 26.6432,164.7885 28.4602,165.2745 C31.1232,165.6385 33.6982,165.4845 36.1832,164.8195 C38.6642,164.1525 41.0272,163.2135 43.2702,162.0035 C45.5102,160.7915 47.6312,159.3685 49.6302,157.7325 C51.6292,156.0985 53.5372,154.5535 55.3542,153.0995 M113.3222,90.7705 C108.3532,99.1295 104.0542,106.2785 100.4202,112.2135 C96.7852,118.1495 93.5432,123.2065 90.6982,127.3865 C87.8502,131.5655 85.3372,135.0495 83.1562,137.8355 C80.9762,140.6235 78.8562,143.1045 76.7972,145.2855 C84.9112,147.3475 93.2712,149.5845 101.8742,152.0095 C110.4742,154.4315 118.8332,156.3705 126.9502,157.8235 C135.0662,159.2775 142.7602,159.9415 150.0292,159.8225 C157.2982,159.7005 163.6572,158.1865 169.1102,155.2795 C168.5012,156.8535 167.6842,159.2465 166.6572,162.4575 C165.6252,165.6665 164.2632,168.8775 162.5682,172.0885 C160.8692,175.2975 158.8702,178.1135 156.5712,180.5385 C154.2682,182.9605 151.6022,184.1105 148.5752,183.9915 C143.7292,183.8695 138.2772,183.0195 132.2212,181.4475 C126.1612,179.8715 119.5912,177.7815 112.5042,175.1785 C105.4172,172.5715 97.8762,169.6645 89.8802,166.4555 C81.8852,163.2445 73.5262,159.9415 64.8032,156.5525 C61.2882,158.9745 57.5342,161.3365 53.5372,163.6395 C49.5392,165.9385 45.5702,167.7565 41.6342,169.0905 C37.6972,170.4225 33.9112,171.0585 30.2782,170.9985 C26.6432,170.9365 23.4912,169.8175 20.8272,167.6375 C18.8892,166.0615 17.6482,164.2435 17.1032,162.1855 C16.5582,160.1235 16.4672,158.0055 16.8302,155.8245 C17.1942,153.6445 18.0112,151.5835 19.2832,149.6465 C20.5552,147.7105 22.0372,146.0745 23.7362,144.7405 C28.3382,141.3505 34.1532,139.6835 41.1802,139.7435 C48.2042,139.8055 55.9592,140.6835 64.4402,142.3785 C66.3762,140.1975 68.3162,137.8075 70.2552,135.2005 C72.1922,132.5965 74.3442,129.5385 76.7062,126.0235 C79.0692,122.5115 81.6412,118.3625 84.4292,113.5755 C87.2142,108.7915 90.4262,103.1275 94.0602,96.5855 C97.6952,89.1975 101.3882,81.7155 105.1452,74.1435 C108.8992,66.5735 112.8362,59.2145 116.9562,52.0645 C98.5402,57.1525 82.7932,63.1805 69.7102,70.1455 C56.6262,77.1125 46.1772,84.3515 38.3642,91.8605 C30.5502,99.3735 25.3082,106.7615 22.6452,114.0295 C19.9792,121.2995 19.7382,127.7215 21.9182,133.2925 C18.2832,132.5645 14.9502,131.5375 11.9242,130.2025 C9.3802,128.9935 6.9262,127.3575 4.5642,125.2965 C2.2012,123.2375 0.7772,120.4525 0.2942,116.9375 C-0.3138,113.1845 0.0212,109.0635 1.2932,104.5805 C2.5662,100.1005 4.9882,95.5255 8.5622,90.8605 C12.1342,86.1985 17.0122,81.5335 23.1902,76.8685 C29.3682,72.2065 37.0612,67.7825 46.2682,63.6035 C55.4742,59.4245 66.3482,55.5795 78.8872,52.0645 C91.4252,48.5525 105.8712,45.7045 122.2262,43.5235 C127.7972,34.5605 133.7022,26.5635 139.9442,19.5365 C146.1822,12.5125 153.1182,7.1805 160.7502,3.5465 C165.4752,1.3655 170.4412,0.3655 175.6512,0.5475 C180.8592,0.7285 185.6462,1.6695 190.0072,3.3635 C194.3682,5.0615 197.8802,7.3615 200.5462,10.2695 C203.2092,13.1775 204.3002,16.3285 203.8182,19.7195 C202.3642,23.3535 199.6072,26.5335 195.5492,29.2595 C191.4892,31.9845 186.5822,34.3785 180.8302,36.4365 C175.0742,38.4985 168.6232,40.3435 161.4772,41.9785 C154.3272,43.6145 146.9402,45.2225 139.3082,46.7945 C133.7342,54.1855 128.8272,61.8775 124.5882,69.8725 C120.3472,77.8685 116.5932,84.8365 113.3222,90.7705" id="Fill-1" fill="#000000" sketch:type="MSShapeGroup" mask="url(#mask-2)"></path>
            </g>
            <path d="M209.0845,53.1548 C209.0845,51.2178 209.5985,48.8838 210.6285,46.1588 C211.6565,43.4328 212.9285,40.6788 214.4445,37.8898 C215.9585,35.1048 217.5935,32.5298 219.3515,30.1678 C221.1055,27.8048 222.7135,26.0788 224.1665,24.9888 C225.9835,23.6568 228.3465,23.2338 231.2535,23.7168 C234.1615,24.2018 236.8555,25.0798 239.3405,26.3508 C241.8215,27.6238 243.7925,28.9868 245.2455,30.4398 C246.6995,31.8938 246.8815,32.8648 245.7915,33.3468 C242.1565,35.2868 238.7325,37.4078 235.5235,39.7078 C232.3135,42.0098 229.3745,44.3128 226.7105,46.6128 C224.0445,48.9158 221.7725,51.0958 219.8965,53.1548 C218.0175,55.2168 216.5945,56.8518 215.6265,58.0608 C215.3815,58.4248 214.8985,58.4558 214.1725,58.1518 C213.4455,57.8508 212.7185,57.3658 211.9915,56.6988 C211.2655,56.0338 210.5975,55.3668 209.9925,54.6998 C209.3855,54.0348 209.0845,53.5178 209.0845,53.1548 L209.0845,53.1548 Z M212.5365,113.3028 C208.2945,118.0278 203.9045,122.4798 199.3615,126.6598 C194.8195,130.8398 190.3365,134.5048 185.9155,137.6538 C181.4915,140.8048 177.2835,143.2868 173.2855,145.1038 C169.2875,146.9218 165.6535,147.8298 162.3825,147.8298 C159.5975,145.2858 158.2945,141.3788 158.4765,136.1088 C158.6575,130.8398 160.0825,124.6328 162.7465,117.4828 C165.4125,110.3368 169.1965,102.5218 174.1045,94.0418 C179.0105,85.5628 184.7935,76.9598 191.4575,68.2378 C192.9115,66.3008 194.5745,64.9978 196.4545,64.3308 C198.3315,63.6668 200.2995,63.4218 202.3605,63.6038 C204.4195,63.7858 206.4185,64.2118 208.3565,64.8758 C210.2935,65.5428 212.1105,66.3008 213.8095,67.1468 C206.1765,75.5068 199.4815,83.5638 193.7295,91.3158 C187.9745,99.0698 183.0985,106.1258 179.1015,112.4858 C175.1035,118.8448 172.0425,124.3598 169.9245,129.0218 C167.8065,133.6868 166.5625,137.2298 166.1985,139.6518 C169.1055,139.8968 172.3145,139.2288 175.8295,137.6538 C179.3425,136.0808 183.0075,133.8998 186.8235,131.1118 C190.6405,128.3268 194.5155,125.0548 198.4535,121.2998 C202.3895,117.5458 206.2355,113.5478 209.9925,109.3048 L212.5365,113.3028 Z" id="Fill-4" fill="#000000" sketch:type="MSShapeGroup"></path>
            <path d="M250.6968,92.769 C248.7578,93.86 246.9998,95.435 245.4258,97.494 C243.8508,99.555 242.7288,101.673 242.0648,103.854 C241.3978,106.035 241.3378,108.096 241.8838,110.033 C242.4278,111.971 243.8508,113.366 246.1538,114.211 C246.5168,113.122 246.9398,111.699 247.4258,109.942 C247.9078,108.187 248.3628,106.37 248.7888,104.49 C249.2118,102.613 249.5748,100.765 249.8788,98.948 C250.1788,97.13 250.3918,95.617 250.5138,94.405 L250.6968,92.769 Z M289.5838,106.216 C287.0398,108.156 284.3738,109.942 281.5888,111.577 C278.8008,113.212 276.0458,114.666 273.3198,115.938 C270.5938,117.21 267.9878,118.241 265.5068,119.028 C263.0218,119.817 260.8728,120.331 259.0548,120.572 C255.6628,125.782 251.9368,130.234 247.8798,133.928 C243.8198,137.625 239.7618,140.623 235.7048,142.923 C231.6438,145.226 227.7378,146.771 223.9838,147.557 C220.2268,148.343 216.9568,148.434 214.1718,147.83 C211.8688,147.225 209.9608,145.953 208.4468,144.013 C206.9308,142.077 205.6898,139.774 204.7218,137.108 C203.7538,134.445 203.0868,131.566 202.7228,128.477 C202.3598,125.387 202.2398,122.389 202.3598,119.482 C202.4818,113.911 203.5118,108.124 205.4488,102.127 C207.3848,96.131 210.1108,90.498 213.6258,85.228 C217.1378,79.958 221.3778,75.296 226.3458,71.236 C231.3118,67.178 236.8858,64.24 243.0638,62.422 C245.2448,61.818 247.3938,61.727 249.5148,62.15 C251.6338,62.576 253.4818,63.453 255.0568,64.785 C256.6308,66.12 257.7838,67.814 258.5098,69.873 C259.2368,71.934 259.2368,74.296 258.5098,76.959 C254.1488,76.84 249.8158,77.596 245.5168,79.231 C241.2158,80.867 237.1278,83.201 233.2518,86.227 C229.3728,89.257 225.8918,92.8 222.8018,96.858 C219.7138,100.918 217.1978,105.217 215.2608,109.76 C213.3218,114.302 212.1408,118.967 211.7178,123.752 C211.2928,128.54 211.8088,133.173 213.2618,137.654 C214.1088,139.714 215.1708,140.987 216.4428,141.469 C217.7148,141.955 219.3788,141.895 221.4398,141.288 C225.6788,139.957 229.8278,137.472 233.8868,133.837 C237.9448,130.203 241.2468,125.66 243.7918,120.208 C240.2758,118.998 237.8848,117.21 236.6128,114.848 C235.3418,112.486 234.7968,109.942 234.9778,107.215 C235.1598,104.49 235.7958,101.827 236.8858,99.22 C237.9758,96.617 239.1858,94.467 240.5198,92.769 C243.3048,89.015 246.6358,85.745 250.5138,82.956 C254.3898,80.171 258.8738,78.354 263.9618,77.505 C266.6248,78.839 268.2918,81.02 268.9588,84.046 C269.6238,87.077 269.6858,90.407 269.1398,94.041 C268.5948,97.675 267.6248,101.31 266.2328,104.944 C264.8398,108.579 263.5358,111.667 262.3268,114.211 C263.5358,114.092 265.1118,113.729 267.0508,113.122 C268.9868,112.517 271.0768,111.667 273.3198,110.578 C275.5598,109.487 277.8908,108.215 280.3158,106.761 C282.7378,105.308 284.9778,103.672 287.0398,101.855 L289.5838,106.216 Z" id="Fill-6" fill="#000000" sketch:type="MSShapeGroup"></path>
            <g id="Group-10">
                <mask id="mask-4" sketch:name="Clip 9" fill="white">
                    <use xlink:href="#path-3"></use>
                </mask>
                <g id="Clip-9"></g>
                <path d="M359.1821,108.7603 C354.6991,113.9703 350.0341,118.9363 345.1901,123.6613 C340.3431,128.3863 335.5281,132.5363 330.7431,136.1093 C325.9551,139.6833 321.3531,142.5313 316.9321,144.6503 C312.5091,146.7713 308.5421,147.8293 305.0301,147.8293 C302.6051,146.3753 300.8201,144.1043 299.6691,141.0153 C298.5171,137.9263 298.5171,133.7463 299.6691,128.4773 C300.8201,123.2063 303.3641,116.7563 307.3011,109.1233 C311.2371,101.4913 317.1431,92.4063 325.0191,81.8653 C321.5041,84.6553 317.6881,88.1353 313.5711,92.3153 C309.4511,96.4943 305.1491,101.3413 300.6681,106.8523 C296.1861,112.3663 291.5831,118.5443 286.8581,125.3873 C282.1331,132.2333 277.4681,139.7143 272.8661,147.8293 C269.7171,146.2563 267.8091,143.6813 267.1421,140.1073 C266.4781,136.5343 266.6881,132.3553 267.7781,127.5683 C268.8691,122.7833 270.5941,117.6643 272.9561,112.2133 C275.3191,106.7613 278.0141,101.3723 281.0431,96.0403 C284.0701,90.7103 287.2501,85.6543 290.5831,80.8663 C293.9141,76.0823 297.0351,71.9933 299.9421,68.6013 C301.3961,66.6643 303.0601,65.3613 304.9391,64.6943 C306.8161,64.0303 308.7551,63.7573 310.7541,63.8763 C312.7531,63.9983 314.7211,64.4213 316.6601,65.1483 C318.5961,65.8753 320.4131,66.6643 322.1121,67.5103 C316.6601,72.8423 312.0541,77.6583 308.3011,81.9563 C304.5441,86.2583 301.3651,90.2253 298.7611,93.8603 C296.1551,97.4933 293.9141,100.9183 292.0371,104.1263 C290.1581,107.3373 288.3121,110.5773 286.4941,113.8483 C291.4611,107.5513 296.1251,101.9773 300.4871,97.1303 C304.8481,92.2863 309.0281,87.9853 313.0261,84.2283 C317.0241,80.4753 320.8991,77.1413 324.6561,74.2343 C328.4101,71.3263 332.1651,68.6633 335.9221,66.2393 C337.3751,65.0293 338.9801,64.2393 340.7381,63.8763 C342.4931,63.5133 344.2811,63.4523 346.0981,63.6953 C347.9151,63.9393 349.7331,64.3933 351.5491,65.0573 C353.3671,65.7243 355.0021,66.4203 356.4561,67.1473 C348.8241,75.5063 342.1281,83.5643 336.3761,91.3163 C330.6201,99.0703 325.7451,106.1253 321.7481,112.4863 C317.7501,118.8453 314.6901,124.3603 312.5721,129.0223 C310.4511,133.6873 309.2091,137.2303 308.8461,139.6523 C311.8721,139.8973 315.2971,139.1383 319.1131,137.3803 C322.9291,135.6263 326.8961,133.2013 331.0161,130.1123 C335.1321,127.0233 339.3121,123.3883 343.5541,119.2093 C347.7931,115.0303 351.8511,110.5773 355.7291,105.8533 L359.1821,108.7603 Z" id="Fill-8" fill="#000000" sketch:type="MSShapeGroup" mask="url(#mask-4)"></path>
            </g>
        </g>
    </g>
</svg>